<?xml version="1.0" standalone="no"?>
<!DOCTYPE svg PUBLIC "-//W3C//DTD SVG 20010904//EN"
 "http://www.w3.org/TR/2001/REC-SVG-20010904/DTD/svg10.dtd">
<svg version="1.0" xmlns="http://www.w3.org/2000/svg"
 width="16.000000pt" height="16.000000pt" viewBox="0 0 16.000000 16.000000"
 preserveAspectRatio="xMidYMid meet">
<metadata>
Created by potrace 1.11, written by Peter Selinger 2001-2013
</metadata>
<g transform="translate(0.000000,16.000000) scale(0.001196,-0.001196)"
fill="#000000" stroke="none">
<path d="M5128 11637 c-59 -35 -154 -127 -171 -166 -8 -20 -22 -61 -31 -91
-18 -63 -49 -173 -51 -180 -7 -27 -27 -98 -32 -110 -3 -8 -7 -19 -8 -25 -2 -5
-10 -37 -19 -70 -9 -33 -18 -67 -20 -75 -5 -20 -122 -444 -148 -535 -17 -60
-40 -145 -79 -285 -5 -19 -11 -42 -14 -50 -22 -78 -68 -248 -70 -260 -2 -8 -8
-27 -14 -42 -6 -16 -8 -28 -6 -28 2 0 0 -12 -6 -27 -22 -57 -24 -70 -15 -133
6 -52 47 -115 95 -147 67 -45 182 -39 242 14 36 32 83 107 93 148 4 17 14 44
21 60 14 29 107 308 111 331 1 7 18 63 37 125 68 217 85 279 80 279 -3 0 -1 6
5 13 6 7 13 24 15 38 3 14 15 58 27 98 12 41 23 81 25 90 2 9 8 27 13 41 5 14
10 27 10 30 1 14 15 66 21 75 3 6 7 16 8 23 9 40 34 124 59 199 33 98 71 157
119 184 22 13 45 24 50 25 6 1 30 5 55 9 59 9 2264 10 2279 1 6 -4 11 -4 11 1
0 10 132 9 148 -1 7 -4 12 -4 12 1 0 8 121 8 205 -1 67 -7 126 -37 163 -83 28
-36 78 -141 85 -180 2 -10 9 -38 16 -63 8 -25 15 -52 16 -60 2 -8 4 -15 5 -15
1 0 3 -7 5 -15 31 -121 62 -226 68 -231 5 -3 8 -9 7 -13 -3 -9 21 -128 29
-141 3 -5 7 -19 9 -30 7 -37 8 -40 15 -52 5 -7 6 -13 3 -13 -3 0 1 -21 9 -47
8 -27 16 -59 19 -73 11 -56 115 -445 126 -476 6 -14 8 -30 4 -35 -3 -5 -1 -9
4 -9 5 0 13 -10 17 -22 4 -13 8 -25 10 -28 1 -3 6 -14 10 -25 19 -44 71 -97
120 -121 53 -25 170 -40 181 -22 3 4 14 8 24 8 28 0 74 30 97 62 20 29 23 75
8 153 -3 17 -7 39 -8 50 -2 12 -7 26 -11 33 -4 7 -2 12 4 12 6 0 8 4 5 10 -8
12 -15 45 -20 90 -2 19 -7 45 -10 58 -3 12 -7 32 -11 45 -3 12 -7 33 -10 47
-2 14 -8 36 -13 50 -5 14 -14 45 -21 70 -7 25 -16 56 -21 70 -4 14 -24 79 -43
145 -19 66 -44 151 -56 189 -12 38 -23 77 -25 88 -2 10 -7 23 -10 28 -3 5 -8
20 -11 32 -9 38 -12 53 -14 56 -2 1 -4 7 -5 12 -1 6 -4 12 -5 15 -1 3 -3 8 -5
13 -1 4 -5 14 -8 22 -4 8 -8 27 -11 42 -2 14 -9 35 -14 45 -6 10 -12 32 -15
48 -3 17 -14 59 -25 95 -11 36 -30 99 -42 140 -39 133 -92 284 -111 315 -24
41 -92 102 -158 142 l-55 33 -1670 -1 -1671 0 -37 -22z"/>
<path d="M1325 10510 c-2 -3 -31 -5 -64 -5 -34 0 -61 -2 -61 -5 0 -3 -28 -6
-63 -6 -154 -3 -262 -48 -363 -150 -35 -35 -64 -68 -64 -73 0 -5 -6 -16 -13
-23 -12 -12 -57 -109 -62 -133 -1 -5 -7 -28 -13 -50 -36 -129 -32 -491 5 -576
21 -47 78 -104 122 -121 82 -32 183 -9 237 55 62 74 72 112 73 300 1 185 4
208 23 247 29 56 53 67 164 77 108 9 394 9 603 0 153 -7 219 -22 222 -51 1 -6
3 -20 5 -31 4 -29 5 -54 3 -107 -1 -27 0 -51 4 -54 3 -3 2 -17 -3 -30 -6 -14
-6 -26 0 -29 5 -3 6 -15 0 -29 -4 -12 -5 -29 0 -36 5 -7 4 -23 0 -36 -5 -12
-7 -24 -5 -26 3 -2 6 -22 9 -44 7 -72 59 -152 128 -197 56 -35 178 -14 241 43
41 35 81 107 82 146 0 18 3 36 7 39 3 4 2 19 -2 35 -4 16 -6 31 -2 34 7 8 7
69 -1 89 -4 10 -3 17 1 17 8 0 7 138 -2 207 -9 67 -11 77 -18 89 -4 6 -9 21
-11 35 -15 80 -85 199 -151 255 -79 68 -199 114 -308 118 -16 1 -28 3 -28 6 0
3 -17 6 -38 7 -20 1 -91 4 -157 8 -146 9 -496 12 -500 5z"/>
<path d="M6708 9715 c-2 -2 -55 -6 -118 -9 -63 -4 -131 -8 -150 -11 -19 -2
-73 -6 -119 -9 -85 -7 -300 -35 -311 -41 -3 -2 -22 -6 -43 -9 -43 -7 -190 -47
-254 -70 -22 -8 -44 -12 -47 -9 -3 4 -6 1 -6 -5 0 -7 -3 -11 -7 -10 -12 2 -62
-12 -113 -32 -25 -10 -81 -32 -125 -48 -129 -48 -162 -62 -330 -147 -138 -70
-380 -207 -395 -224 -5 -5 -191 -132 -229 -156 -9 -5 -18 -12 -21 -15 -3 -3
-34 -27 -70 -55 -36 -27 -66 -53 -68 -57 -2 -5 -8 -8 -14 -8 -5 0 -15 -6 -22
-12 -7 -7 -39 -35 -71 -63 -163 -138 -388 -364 -467 -467 -20 -26 -39 -44 -42
-41 -3 4 -6 -1 -6 -10 0 -8 -4 -17 -8 -19 -9 -4 -119 -157 -152 -213 -13 -22
-28 -41 -32 -43 -4 -2 -8 -12 -8 -23 0 -10 -4 -19 -8 -19 -4 0 -27 -37 -51
-82 -23 -46 -52 -99 -63 -118 -11 -19 -36 -64 -55 -100 -79 -148 -100 -186
-117 -212 -10 -16 -14 -28 -10 -28 5 0 4 -4 -2 -8 -12 -7 -22 -26 -78 -138
-28 -58 -56 -143 -81 -254 -2 -8 -11 -42 -20 -75 -9 -33 -18 -68 -20 -78 -2
-10 -14 -52 -25 -95 -12 -42 -23 -84 -25 -92 -2 -8 -10 -42 -19 -75 -8 -33
-17 -73 -20 -90 -6 -30 -11 -56 -21 -105 -23 -114 -38 -380 -38 -665 1 -140 8
-360 13 -360 1 0 3 -25 6 -55 4 -55 11 -105 14 -105 1 0 3 -16 5 -35 4 -35 9
-64 20 -110 3 -14 8 -36 10 -50 2 -14 9 -40 14 -58 5 -18 10 -36 11 -40 0 -4
3 -16 5 -27 3 -11 7 -31 10 -45 2 -14 9 -43 15 -65 15 -53 31 -116 35 -135 2
-8 4 -16 5 -17 3 -3 4 -7 14 -48 4 -16 22 -73 39 -125 17 -52 32 -97 32 -100
1 -3 7 -18 14 -35 7 -16 14 -34 15 -40 1 -5 10 -28 20 -50 10 -22 19 -44 20
-50 4 -22 139 -290 147 -293 5 -2 9 -8 9 -13 0 -10 86 -164 103 -184 7 -9 98
-147 122 -184 6 -9 12 -18 15 -21 3 -3 17 -21 30 -40 27 -38 197 -258 214
-276 6 -6 23 -27 38 -46 15 -19 58 -66 95 -106 37 -39 73 -77 79 -84 14 -16
100 -90 169 -146 6 -4 53 -41 105 -82 52 -41 97 -77 100 -80 3 -3 41 -32 85
-64 44 -33 82 -62 85 -66 10 -11 245 -167 290 -191 25 -13 47 -26 50 -29 16
-16 285 -150 370 -184 96 -39 103 -42 130 -55 24 -10 101 -38 118 -42 15 -3
27 -7 47 -15 21 -7 37 -12 58 -17 6 -1 17 -5 22 -9 6 -3 26 -9 45 -13 19 -4
39 -10 45 -13 5 -3 16 -7 25 -8 8 -1 40 -10 70 -19 30 -9 66 -18 80 -21 14 -3
43 -10 65 -16 47 -13 38 -11 138 -32 96 -20 150 -27 357 -43 104 -8 744 -9
805 -2 105 14 296 50 448 85 26 6 101 22 132 28 11 3 67 16 125 30 58 15 116
29 129 32 13 3 34 10 45 16 12 6 22 11 24 10 1 -1 3 -2 5 -1 1 0 11 2 21 4 37
7 301 119 429 182 70 35 132 63 137 63 6 0 10 5 10 10 0 6 9 10 20 10 11 0 20
4 20 9 0 5 8 11 18 14 29 10 143 79 255 154 43 29 83 53 88 53 5 0 9 4 9 8 0
5 24 25 53 45 28 20 66 48 82 61 17 14 40 33 53 43 27 20 23 17 117 98 39 33
86 75 107 95 161 155 225 222 348 362 44 49 161 200 195 252 11 16 27 39 35
51 65 96 127 194 194 308 52 89 210 409 211 429 0 3 3 10 8 14 4 4 7 16 7 26
0 10 5 18 10 18 6 0 9 3 8 8 0 4 2 14 5 22 8 20 86 250 86 253 0 1 2 9 5 17 7
21 84 310 92 345 2 11 6 31 9 45 24 107 45 226 50 285 2 17 4 30 5 30 11 0 17
526 6 543 -4 7 -2 12 4 12 6 0 9 4 6 8 -2 4 -8 68 -11 142 -8 152 -12 215 -15
215 -1 0 -3 18 -5 40 -1 22 -6 65 -10 95 -4 30 -7 63 -7 73 0 9 -3 17 -7 17
-4 0 -7 10 -7 23 0 41 -76 356 -110 457 -9 25 -17 52 -19 60 -2 8 -13 42 -25
75 -11 33 -23 67 -25 75 -12 41 -66 184 -80 210 -9 17 -13 30 -9 30 3 0 -1 11
-10 25 -9 13 -16 28 -16 33 0 7 -110 220 -158 304 -42 73 -124 201 -135 209
-5 3 -8 8 -6 10 4 7 -93 149 -102 149 -5 0 -9 5 -9 11 0 9 -68 103 -105 145
-5 7 -26 31 -45 55 -118 145 -290 324 -445 462 -49 44 -95 86 -101 93 -6 8
-14 14 -18 14 -3 0 -39 27 -80 60 -41 33 -79 60 -84 60 -6 0 -12 4 -14 9 -4
12 -183 131 -196 131 -6 0 -12 4 -14 8 -7 17 -465 262 -490 262 -4 0 -40 16
-80 35 -40 20 -73 35 -73 35 0 -2 -23 7 -154 57 -62 24 -120 45 -130 46 -9 2
-61 17 -116 34 -98 30 -260 70 -320 79 -32 5 -65 10 -105 18 -35 7 -165 24
-225 31 -27 2 -75 8 -105 11 -54 6 -487 14 -492 9z m392 -469 c163 -12 200
-16 280 -30 14 -3 47 -8 74 -11 27 -3 51 -7 55 -9 3 -2 24 -7 46 -10 34 -6
127 -26 190 -43 11 -2 27 -6 35 -8 8 -1 22 -5 30 -7 8 -3 83 -27 165 -54 83
-26 157 -51 165 -56 8 -4 53 -23 100 -42 47 -19 123 -53 170 -76 47 -23 87
-42 90 -43 3 0 11 -7 18 -14 8 -7 17 -11 22 -8 4 3 13 -2 20 -10 7 -8 17 -15
22 -15 7 0 129 -75 282 -173 22 -13 18 -11 136 -99 185 -138 294 -238 525
-483 11 -12 32 -37 46 -56 15 -19 35 -44 45 -55 48 -54 222 -298 246 -344 7
-14 15 -27 18 -30 3 -3 11 -16 18 -29 8 -13 23 -40 34 -60 79 -137 198 -390
198 -417 0 -8 4 -14 10 -14 5 0 9 -3 9 -7 -1 -5 0 -11 1 -15 1 -5 3 -11 5 -15
1 -5 5 -17 9 -28 10 -25 17 -48 18 -55 0 -3 4 -13 10 -23 5 -10 12 -31 14 -45
3 -15 8 -29 12 -32 8 -5 13 -24 15 -52 1 -10 4 -18 7 -18 4 0 7 -6 7 -12 0 -7
6 -33 13 -58 7 -25 14 -52 16 -60 2 -8 10 -42 19 -75 9 -33 16 -67 17 -75 0
-8 5 -33 10 -55 12 -49 14 -59 22 -115 3 -25 8 -54 10 -65 2 -11 7 -47 10 -80
4 -33 9 -82 12 -108 13 -112 19 -447 10 -587 -5 -76 -17 -204 -22 -230 -2 -14
-6 -34 -8 -46 -2 -12 -7 -45 -11 -75 -4 -30 -8 -56 -10 -59 -2 -3 -6 -24 -10
-47 -3 -24 -16 -83 -29 -133 -13 -49 -22 -90 -19 -90 3 0 0 -7 -7 -15 -7 -9
-10 -18 -7 -22 3 -3 0 -18 -9 -34 -8 -16 -14 -30 -13 -31 2 -3 -17 -69 -28
-98 -3 -8 -7 -21 -9 -28 -1 -8 -6 -21 -10 -30 -4 -9 -8 -19 -9 -22 -1 -3 -5
-14 -10 -25 -4 -11 -18 -49 -32 -85 -14 -36 -38 -94 -55 -130 -17 -36 -39 -83
-49 -105 -17 -37 -76 -148 -128 -240 -25 -43 -145 -229 -161 -248 -6 -7 -30
-40 -55 -74 -24 -34 -54 -74 -67 -89 -329 -391 -621 -640 -1012 -863 -86 -49
-270 -143 -286 -147 -3 0 -27 -11 -55 -23 -139 -64 -448 -169 -540 -185 -5 -1
-16 -5 -22 -9 -7 -5 -18 -5 -23 -2 -6 4 -16 2 -23 -3 -7 -6 -31 -13 -54 -15
-23 -3 -46 -7 -50 -10 -4 -3 -30 -8 -57 -11 -27 -4 -52 -9 -56 -11 -6 -4 -65
-12 -136 -20 -23 -2 -55 -7 -70 -10 -36 -7 -161 -15 -275 -19 -47 -2 -91 -6
-98 -10 -6 -4 -11 -3 -11 3 0 7 -8 7 -24 1 -13 -5 -27 -6 -30 -3 -3 4 -52 8
-109 9 -103 3 -192 9 -257 19 -19 3 -55 8 -80 10 -66 7 -110 14 -129 19 -9 3
-36 8 -61 11 -25 4 -83 15 -129 27 -46 11 -89 21 -95 22 -23 5 -104 29 -196
58 -257 82 -562 220 -758 344 -29 19 -54 34 -56 34 -2 0 -32 19 -66 43 -34 23
-69 47 -78 52 -10 6 -19 12 -22 15 -3 3 -21 17 -40 30 -33 22 -171 132 -196
155 -6 5 -35 30 -64 55 -140 120 -328 323 -460 496 -33 43 -63 84 -68 89 -25
31 -112 166 -112 174 0 5 -4 11 -8 13 -14 5 -117 189 -178 317 -31 64 -62 128
-70 142 -7 14 -11 29 -7 33 3 3 1 6 -5 6 -7 0 -12 8 -12 18 0 10 -4 22 -10 28
-5 5 -11 18 -13 29 -2 11 -10 34 -16 50 -13 30 -69 198 -76 225 -2 8 -11 40
-20 70 -25 89 -74 314 -81 372 -4 29 -8 56 -10 59 -2 4 -6 35 -9 70 -4 35 -8
75 -10 89 -23 132 -23 459 0 735 4 49 33 242 46 310 6 28 13 61 15 75 8 42 44
183 53 210 5 14 19 59 31 100 12 41 27 81 32 88 6 6 8 12 4 12 -3 0 4 24 15
53 12 28 22 58 22 65 0 6 5 12 10 12 6 0 7 3 4 7 -4 3 -3 11 1 17 5 6 19 38
32 71 48 122 252 505 279 525 4 3 10 12 13 20 7 18 137 201 170 240 13 14 38
46 57 70 19 25 47 59 63 75 15 17 37 41 48 55 66 78 297 301 352 338 13 9 30
23 38 32 8 8 44 37 80 62 36 26 71 53 79 59 8 7 41 31 75 53 33 22 63 44 64
48 2 4 8 8 14 8 5 0 41 20 79 45 38 24 69 41 69 37 0 -4 4 -2 8 3 10 14 37 29
184 101 69 35 138 66 152 70 14 3 26 9 26 13 0 4 6 8 13 8 6 0 32 9 57 20 39
18 245 91 274 98 6 1 18 5 26 8 8 4 60 18 115 31 55 13 107 27 115 30 8 3 29
7 45 10 17 3 40 7 51 10 31 6 95 18 124 21 14 2 25 4 25 5 0 1 14 3 30 5 17 2
53 6 80 10 28 3 68 8 90 10 22 3 96 8 165 11 69 3 126 7 127 8 4 3 265 -3 343
-8z"/>
<path d="M7306 8285 c-11 -8 -17 -17 -14 -20 2 -3 13 4 23 15 21 23 18 25 -9
5z"/>
<path d="M7265 8259 c-4 -5 -17 -15 -28 -20 -45 -21 -124 -72 -162 -107 -8 -7
-15 -11 -15 -7 0 5 -83 -54 -127 -90 -7 -5 -24 -19 -38 -30 -27 -21 -35 -27
-119 -99 -105 -88 -290 -282 -348 -363 -17 -24 -35 -43 -40 -43 -4 0 -8 -6 -8
-14 0 -8 -4 -16 -8 -18 -5 -1 -33 -39 -63 -83 -30 -44 -56 -82 -59 -85 -3 -3
-14 -23 -25 -45 -11 -22 -22 -42 -25 -45 -13 -13 -130 -240 -136 -265 -2 -5
-21 -55 -43 -110 -40 -99 -52 -131 -57 -150 -1 -5 -9 -29 -18 -52 -8 -24 -13
-43 -9 -43 3 0 0 -7 -7 -15 -7 -8 -10 -15 -7 -15 3 0 1 -15 -4 -32 -6 -18 -12
-40 -14 -48 -2 -8 -8 -30 -14 -47 -5 -18 -8 -33 -6 -33 3 0 0 -12 -5 -26 -6
-15 -13 -43 -15 -63 -3 -20 -9 -58 -15 -86 -5 -27 -12 -70 -15 -95 -3 -25 -8
-61 -10 -80 -4 -33 -10 -97 -16 -182 -2 -21 -7 -38 -11 -38 -4 0 -8 4 -8 9 0
5 -8 26 -17 47 -9 22 -18 44 -19 49 -1 6 -11 35 -22 65 -38 100 -75 256 -88
375 -15 124 -8 381 12 478 2 12 7 38 10 57 11 68 53 237 94 375 22 77 42 147
44 155 3 8 9 26 14 40 5 14 10 27 10 30 0 3 5 18 11 33 6 16 11 35 11 43 0 8
4 22 9 32 5 9 19 51 31 92 21 69 57 160 80 203 6 10 7 17 1 17 -5 0 -13 -10
-17 -22 -3 -13 -13 -31 -22 -40 -8 -10 -11 -18 -6 -18 5 0 4 -4 -1 -8 -6 -4
-26 -36 -44 -72 -19 -36 -38 -72 -42 -80 -34 -62 -104 -231 -156 -375 -17 -46
-80 -293 -81 -315 -1 -8 -4 -31 -7 -50 -3 -19 -8 -46 -11 -60 -22 -128 -23
-471 0 -600 3 -14 7 -43 10 -65 17 -131 79 -376 136 -536 22 -63 42 -118 44
-124 2 -5 8 -21 13 -35 6 -14 9 -28 6 -32 -2 -5 0 -8 5 -8 5 0 15 -19 22 -42
8 -24 22 -58 32 -75 10 -18 15 -33 12 -33 -4 0 1 -11 10 -25 20 -31 20 -36 -1
-28 -63 23 -251 208 -364 358 -166 221 -320 510 -378 710 -30 102 -47 166 -57
215 -3 13 -11 54 -19 90 -40 189 -63 468 -64 784 -1 82 -3 147 -5 145 -2 -2
-7 -29 -11 -59 -4 -30 -9 -58 -11 -61 -2 -3 -6 -37 -10 -75 -3 -38 -8 -87 -10
-109 -12 -127 -2 -411 20 -535 3 -19 8 -51 11 -70 8 -58 15 -91 36 -175 12
-44 22 -88 24 -97 2 -9 9 -27 16 -40 7 -13 11 -24 10 -26 -3 -4 38 -131 55
-170 9 -21 22 -50 29 -67 8 -16 11 -33 9 -37 -3 -4 0 -8 5 -8 6 0 10 -3 9 -7
-4 -11 98 -208 133 -259 16 -23 29 -46 29 -49 0 -6 59 -94 70 -105 3 -3 29
-36 57 -75 28 -38 75 -97 105 -129 59 -67 236 -246 242 -246 2 0 32 -27 67
-60 35 -33 68 -60 72 -60 4 0 18 -9 30 -21 12 -12 67 -54 122 -95 55 -41 111
-83 125 -94 l25 -18 -45 3 c-39 3 -66 6 -165 20 -11 2 -20 4 -20 5 0 2 -35 10
-75 17 -19 3 -38 10 -41 15 -3 5 -10 9 -15 8 -14 -2 -98 22 -108 31 -6 5 -16
9 -23 9 -14 0 -192 81 -233 106 -14 9 -37 21 -52 27 -16 6 -28 15 -28 19 0 4
-6 8 -12 8 -11 1 -103 58 -212 132 -31 21 -160 120 -205 158 -107 88 -333 320
-423 435 -5 6 -16 20 -26 32 -9 12 -25 32 -35 45 -17 21 -104 144 -127 178
-40 61 -61 94 -98 158 -24 39 -44 72 -46 72 -2 0 7 -26 20 -57 14 -32 32 -76
41 -98 40 -96 201 -364 247 -411 6 -6 22 -26 36 -44 145 -192 452 -459 724
-629 98 -61 293 -161 300 -154 3 4 6 1 6 -5 0 -7 8 -12 18 -12 10 0 22 -4 28
-8 5 -5 36 -19 69 -31 33 -13 69 -27 80 -31 74 -32 378 -112 510 -135 21 -3
85 -14 121 -20 12 -2 48 -6 80 -10 33 -3 75 -9 94 -11 19 -3 45 -7 58 -8 12
-2 25 -5 27 -8 6 -6 -106 -35 -220 -58 -84 -16 -109 -21 -145 -25 -19 -2 -60
-7 -90 -10 -160 -20 -446 -10 -645 21 -119 19 -429 99 -480 123 -11 5 -49 20
-85 32 -36 12 -71 26 -77 31 -7 6 -13 7 -13 3 0 -4 -6 -2 -13 4 -8 6 -17 8
-20 4 -4 -3 -7 -1 -7 6 0 7 -4 10 -9 6 -5 -3 -12 -1 -16 5 -4 6 -10 8 -15 5
-4 -3 -13 2 -20 10 -7 8 -16 12 -21 9 -5 -3 -9 -1 -9 4 0 5 -6 9 -12 9 -13 0
-259 113 -268 123 -3 3 -34 20 -70 38 -36 18 -85 44 -110 58 l-45 25 40 -36
c22 -19 46 -35 53 -35 6 0 12 -4 12 -8 0 -5 35 -30 78 -57 42 -27 80 -54 84
-59 4 -6 8 -7 8 -2 0 5 8 2 18 -6 9 -9 33 -24 52 -33 19 -10 38 -23 42 -29 4
-6 8 -7 8 -2 0 5 6 4 13 -3 23 -18 230 -118 313 -151 43 -17 88 -35 99 -40 16
-7 50 -18 75 -25 3 -1 12 -4 20 -7 23 -9 122 -38 145 -42 11 -3 52 -12 90 -20
95 -22 103 -24 155 -30 25 -3 56 -8 70 -11 54 -11 202 -19 340 -18 141 1 198
4 310 19 30 4 72 8 92 8 21 1 38 4 38 7 0 3 6 6 13 6 23 2 92 14 107 20 8 3
24 7 35 8 11 1 35 5 53 9 19 4 39 8 45 9 7 1 14 5 17 9 3 4 24 10 45 14 22 3
49 11 60 17 11 6 21 10 22 9 10 -5 63 13 63 21 0 6 2 8 6 5 3 -3 35 5 72 19
37 13 72 25 77 27 14 4 40 15 104 43 30 13 56 21 59 19 4 -5 -127 -137 -184
-186 -122 -105 -153 -130 -158 -130 -3 0 -15 -8 -25 -17 -26 -24 -37 -32 -91
-68 -25 -16 -48 -34 -52 -40 -5 -7 -8 -7 -8 0 0 6 -3 5 -8 -1 -8 -12 -61 -43
-198 -115 -96 -52 -268 -123 -374 -156 -173 -55 -209 -65 -219 -58 -6 3 -11 2
-11 -3 0 -5 -6 -9 -12 -9 -7 0 -49 -7 -93 -16 -44 -9 -93 -18 -110 -21 -16 -2
-30 -5 -30 -6 0 -2 -115 -12 -152 -14 -18 0 -33 -3 -33 -6 0 -10 -536 -15
-590 -5 -19 3 -32 3 -29 0 4 -3 15 -7 26 -9 60 -12 103 -18 148 -21 28 -2 50
-5 50 -5 0 -4 93 -11 157 -13 38 -1 68 -6 68 -10 0 -4 9 -3 19 3 11 5 22 7 25
2 5 -8 91 -6 114 3 6 2 12 0 12 -6 0 -6 5 -7 10 -4 6 4 41 8 78 10 37 3 92 7
122 10 30 3 73 8 95 10 22 2 40 4 40 5 0 2 27 9 65 15 19 4 46 9 60 11 14 3
34 7 45 8 11 2 20 4 20 5 0 2 7 4 15 6 57 11 267 80 325 105 135 60 319 155
343 178 7 6 18 12 23 12 11 0 173 111 177 122 2 4 10 8 17 8 7 0 15 3 17 8 2
4 23 23 48 42 107 83 167 138 310 280 158 158 307 321 333 366 12 21 29 17 17
-4 -11 -20 -63 -191 -63 -209 0 -7 -4 -13 -7 -13 -6 0 -33 -66 -43 -105 -2 -5
-9 -21 -17 -35 -8 -14 -15 -29 -16 -35 -7 -36 -125 -253 -185 -343 -16 -24
-29 -45 -29 -48 0 -3 -5 -10 -10 -17 -6 -7 -40 -52 -78 -102 -37 -49 -88 -112
-114 -139 -27 -27 -48 -51 -48 -53 0 -15 -240 -235 -339 -310 -25 -20 -48 -38
-51 -42 -3 -3 -12 -10 -22 -16 -9 -5 -67 -44 -130 -86 -137 -92 -251 -159
-380 -224 -88 -44 -117 -65 -88 -65 6 0 10 4 10 8 0 4 9 8 21 9 11 1 44 10 72
19 29 10 58 19 65 20 30 5 122 49 122 58 0 5 3 7 6 3 9 -9 160 74 262 145 34
24 141 106 178 136 11 9 40 33 64 52 128 102 364 357 495 534 35 48 155 239
179 286 12 25 28 54 34 65 80 145 203 477 248 670 24 107 25 108 30 135 2 14
7 36 10 50 8 33 16 87 19 130 2 19 4 37 4 40 4 11 31 -77 36 -114 3 -21 8 -42
11 -47 3 -5 7 -24 9 -42 2 -18 6 -46 9 -62 7 -45 17 -125 21 -170 6 -58 6
-354 0 -395 -2 -19 -7 -57 -10 -86 -5 -52 -13 -108 -21 -148 -2 -11 -7 -36
-10 -55 -3 -19 -10 -45 -15 -59 -5 -14 -7 -27 -5 -30 3 -2 -1 -19 -8 -36 -7
-17 -12 -39 -10 -49 1 -9 -1 -17 -5 -17 -4 0 -8 -6 -9 -12 -2 -23 -7 -43 -15
-55 -5 -7 -5 -17 -2 -23 3 -5 1 -10 -5 -10 -6 0 -8 -5 -5 -10 4 -6 2 -16 -3
-23 -5 -7 -20 -43 -32 -82 -12 -38 -32 -90 -43 -115 -11 -25 -22 -50 -23 -56
-5 -28 -154 -337 -166 -345 -5 -3 -9 -9 -9 -13 1 -12 -13 -41 -26 -54 -7 -8
-11 -18 -8 -23 4 -5 1 -9 -4 -9 -6 0 -11 -5 -11 -11 0 -6 -13 -30 -30 -54 -16
-24 -30 -46 -30 -49 0 -2 -23 -42 -51 -88 -28 -46 -54 -87 -57 -92 -3 -5 5 -3
17 6 19 14 72 77 126 152 11 16 25 33 31 40 5 6 19 27 30 46 10 19 23 39 27
45 27 35 97 152 97 163 0 6 5 12 10 12 6 0 10 6 10 14 0 8 6 21 13 28 24 26
102 196 162 355 42 110 98 307 110 388 3 22 7 47 10 55 6 21 14 67 20 120 3
25 8 59 10 75 24 183 24 549 0 665 -3 14 -8 43 -10 65 -3 22 -10 64 -16 94 -6
30 -13 64 -14 75 -2 12 -8 39 -14 60 -5 22 -8 44 -5 48 3 4 0 8 -5 8 -6 0 -11
10 -11 23 0 12 -9 51 -21 87 -11 36 -22 74 -23 85 -2 11 -11 39 -19 63 -9 23
-14 42 -10 42 3 0 0 7 -7 15 -7 8 -9 15 -5 15 4 0 2 7 -5 15 -14 17 -18 101
-5 113 4 4 10 2 12 -5 2 -6 14 -22 26 -36 12 -13 47 -52 77 -87 30 -34 60 -67
66 -74 38 -40 161 -219 217 -316 104 -180 212 -429 231 -533 3 -12 5 -22 6
-22 3 0 12 -40 13 -57 1 -10 4 -18 8 -18 4 0 6 -8 4 -17 -1 -10 2 -29 7 -43 5
-14 11 -41 13 -60 2 -19 4 -35 5 -35 1 0 4 -13 5 -30 2 -16 6 -48 9 -70 7 -48
16 -155 21 -245 2 -36 4 -65 5 -65 6 0 4 -78 -2 -81 -3 -2 -3 -17 1 -32 4 -15
6 -152 6 -305 -1 -251 4 -307 18 -222 3 17 10 51 16 77 6 26 13 68 16 95 3 26
8 59 10 73 19 100 25 433 11 570 -11 104 -12 113 -20 160 -4 25 -9 56 -10 70
-2 14 -6 32 -9 40 -4 8 -8 33 -11 55 -3 22 -12 66 -20 98 -9 32 -16 67 -16 77
0 11 -4 20 -8 20 -4 0 -9 8 -10 18 -2 20 -7 41 -14 62 -3 8 -20 60 -37 115
-18 55 -57 152 -88 215 -31 63 -55 118 -55 123 1 4 -1 7 -6 7 -4 0 -16 17 -27
38 -11 20 -28 46 -37 56 -10 11 -18 24 -18 28 0 5 -5 14 -10 21 -6 7 -29 37
-52 67 -24 30 -45 57 -48 60 -3 3 -25 30 -50 60 -106 131 -296 319 -510 504
-69 59 -126 113 -128 119 -3 9 -1 9 5 1 7 -10 30 -16 107 -31 11 -2 25 -8 33
-14 7 -6 13 -8 13 -5 0 4 8 2 18 -3 9 -5 31 -12 47 -15 57 -10 295 -104 368
-145 29 -16 144 -82 186 -106 28 -17 196 -129 201 -135 3 -3 23 -19 45 -35 22
-16 45 -34 50 -39 6 -6 33 -29 60 -51 61 -48 293 -280 355 -354 25 -30 54 -64
65 -77 11 -13 29 -35 40 -49 11 -14 25 -31 30 -38 6 -6 26 -32 45 -57 19 -25
37 -47 40 -50 3 -3 10 -12 15 -22 27 -44 126 -177 137 -184 7 -5 4 5 -6 21
-11 16 -32 54 -48 83 -15 30 -37 66 -48 82 -11 15 -20 31 -20 35 0 6 -138 214
-150 225 -3 3 -17 21 -32 42 -15 20 -33 42 -40 50 -7 7 -26 30 -41 50 -15 21
-44 55 -62 75 -19 21 -35 41 -35 46 0 4 -7 7 -15 7 -8 0 -15 4 -15 10 0 22
-251 252 -350 320 -19 13 -37 27 -40 30 -3 4 -20 15 -37 25 -18 11 -33 23 -33
27 0 4 -4 8 -10 8 -5 0 -40 19 -77 43 -38 24 -92 56 -122 71 -30 15 -62 32
-70 37 -9 5 -47 22 -86 39 -38 17 -78 35 -87 40 -10 6 -26 10 -37 10 -11 0
-21 3 -23 8 -3 7 -188 72 -206 72 -6 0 -23 5 -39 11 -15 7 -35 13 -43 14 -8 2
-68 14 -132 28 -64 14 -138 28 -165 31 -26 4 -61 8 -78 11 -40 7 -106 14 -185
21 -35 3 -66 6 -68 8 -6 7 210 64 323 86 28 5 64 12 80 15 208 42 548 46 785
9 19 -3 46 -7 60 -8 14 -2 35 -6 48 -10 12 -4 35 -9 51 -11 15 -2 57 -11 92
-20 35 -9 71 -18 79 -20 17 -3 116 -34 140 -43 8 -3 17 -6 20 -6 31 -6 299
-116 325 -133 11 -7 26 -13 34 -13 8 0 22 -7 31 -15 10 -9 27 -18 40 -20 12
-2 27 -8 34 -14 16 -13 213 -115 201 -104 -21 20 -124 83 -134 83 -6 0 -11 3
-11 8 0 4 -23 18 -50 31 -28 14 -50 29 -50 34 0 4 -4 5 -10 2 -5 -3 -10 -1
-10 4 0 6 -9 11 -19 11 -11 0 -22 4 -26 10 -5 8 -227 120 -238 120 -2 0 -26
10 -53 22 -27 12 -51 23 -54 23 -12 2 -86 28 -95 34 -5 3 -14 6 -20 8 -5 1
-41 11 -80 23 -89 28 -123 36 -215 56 -41 9 -84 18 -95 20 -11 3 -33 6 -50 8
-63 8 -132 16 -185 21 -67 7 -330 7 -385 0 -22 -3 -68 -7 -102 -9 -34 -2 -67
-7 -73 -11 -6 -3 -32 -8 -58 -10 -26 -2 -47 -4 -47 -5 0 -1 -7 -3 -15 -5 -8
-2 -26 -6 -40 -9 -54 -11 -67 -14 -110 -26 -25 -7 -54 -14 -64 -16 -99 -19
-514 -182 -524 -206 -2 -5 -10 -8 -18 -8 -8 0 -27 -8 -41 -17 -21 -14 -25 -15
-18 -3 36 62 228 270 332 360 104 90 171 142 243 190 12 8 32 22 44 31 11 8
28 19 36 22 8 4 29 16 45 27 77 50 385 196 385 183 0 -3 6 -1 13 5 6 5 50 22
97 37 80 25 95 29 138 39 9 2 35 9 57 15 22 6 58 13 80 17 22 3 44 8 48 11 4
3 27 7 50 9 23 3 53 7 67 10 44 9 84 15 130 19 150 13 239 18 352 19 71 1 128
4 128 9 0 4 -12 7 -27 8 -16 0 -55 3 -88 5 -79 6 -482 6 -520 0 -16 -2 -55 -7
-85 -10 -30 -3 -66 -8 -80 -11 -38 -8 -82 -16 -110 -20 -24 -4 -46 -9 -92 -21
-13 -3 -39 -9 -58 -13 -39 -9 -207 -65 -260 -89 -105 -45 -177 -82 -284 -146
-65 -39 -127 -75 -137 -81 -11 -5 -19 -13 -19 -16 0 -4 -20 -19 -44 -33 -25
-14 -51 -32 -59 -40 -7 -8 -43 -38 -78 -67 -56 -46 -202 -182 -233 -217 -6 -6
-31 -34 -56 -60 -67 -71 -188 -216 -261 -312 -35 -47 -67 -89 -72 -95 -4 -5
-30 -41 -57 -79 -28 -38 -50 -64 -50 -59 0 5 11 51 24 103 14 52 27 109 30
125 3 17 24 89 46 160 23 72 42 136 42 143 1 6 5 12 10 12 4 0 8 7 8 16 0 8
15 48 34 89 19 40 31 76 28 79 -3 3 1 6 8 6 7 0 10 3 7 7 -4 3 -1 13 7 22 8 9
16 23 18 31 2 8 7 18 11 21 5 3 9 12 11 20 1 8 18 42 39 77 20 35 37 67 37 73
0 5 5 9 10 9 6 0 10 5 10 11 0 10 140 221 177 267 10 12 29 36 43 54 94 119
298 333 394 413 26 22 53 45 59 50 7 6 41 33 77 60 36 27 70 53 75 58 6 4 38
28 73 53 34 25 62 50 62 55 0 12 -7 11 -15 -2z m-310 -1675 c52 -11 55 -11 58
-14 2 -2 30 -8 62 -14 47 -10 209 -58 248 -75 47 -21 112 -78 148 -131 26 -39
45 -60 53 -60 8 0 88 -83 112 -116 47 -65 100 -225 118 -352 3 -24 8 -47 11
-52 3 -5 7 -21 9 -37 2 -15 9 -43 14 -60 9 -28 4 -50 -29 -150 -22 -65 -49
-154 -60 -198 -11 -44 -29 -100 -41 -125 -23 -48 -119 -149 -203 -214 -27 -22
-54 -44 -60 -50 -27 -30 -120 -97 -155 -112 -8 -3 -24 -10 -35 -14 -39 -17
-121 -39 -170 -46 -27 -4 -57 -9 -65 -10 -120 -23 -247 -24 -310 -3 -52 18
-72 27 -160 68 -19 9 -37 16 -40 17 -29 5 -176 80 -211 106 -53 42 -169 164
-169 179 0 4 -6 14 -13 21 -21 21 -87 146 -112 213 -31 80 -58 208 -70 330 -4
40 11 131 25 150 7 10 24 70 19 70 -1 0 4 11 11 25 8 14 15 30 16 35 36 178
74 238 246 387 33 29 77 68 97 85 20 18 44 35 54 39 9 3 17 10 17 15 0 5 7 9
15 9 8 0 15 4 15 9 0 5 12 12 28 16 15 5 32 9 37 11 27 8 137 29 210 41 17 3
48 8 70 12 48 9 154 7 210 -5z"/>
<path d="M8627 7599 c7 -7 15 -10 18 -7 3 3 -2 9 -12 12 -14 6 -15 5 -6 -5z"/>
<path d="M607 9304 c-3 -3 -50 -7 -104 -9 -54 -2 -125 -11 -158 -19 -33 -8
-63 -12 -67 -10 -5 3 -8 0 -8 -6 0 -6 -4 -9 -9 -5 -5 3 -12 1 -16 -5 -3 -5
-13 -10 -22 -10 -24 0 -106 -70 -135 -114 -14 -23 -40 -69 -57 -103 l-31 -62
0 -3222 0 -3221 50 -103 c93 -194 187 -252 435 -270 44 -4 91 -6 105 -5 14 1
35 2 48 1 47 -1 68 -1 97 2 17 1 35 -1 42 -6 6 -4 14 -4 17 1 2 4 20 7 38 5
18 -2 38 -4 43 -4 6 0 39 1 75 1 36 0 84 0 108 -2 23 -2 42 0 42 3 0 3 20 3
45 -1 24 -4 49 -4 55 0 6 4 28 4 48 1 20 -4 61 -4 90 -1 29 4 55 2 58 -2 3 -5
9 -6 13 -4 9 6 24 6 371 7 280 0 322 -1 388 -5 19 -1 36 2 38 6 3 5 13 4 23
-2 10 -5 20 -7 22 -5 5 4 63 6 146 4 28 -1 56 2 62 5 5 4 12 2 16 -4 4 -6 11
-8 16 -4 10 6 97 6 142 0 15 -2 27 0 27 3 0 5 61 6 85 1 6 -1 12 -1 15 0 3 1
19 4 35 6 54 8 119 49 150 93 27 39 30 50 30 119 0 69 -3 82 -30 121 -17 23
-43 50 -60 60 -16 9 -32 19 -36 23 -3 4 -27 10 -55 12 -27 3 -49 5 -49 6 0 1
-15 2 -33 3 -17 1 -32 -2 -32 -6 0 -5 -5 -5 -12 -1 -15 9 -78 12 -78 3 0 -3
-20 -3 -45 1 -25 4 -48 3 -51 -2 -3 -4 -10 -5 -16 -2 -13 9 -136 9 -144 1 -3
-3 -17 -2 -30 3 -15 6 -24 6 -24 0 0 -5 -7 -7 -17 -3 -15 6 -73 7 -90 3 -5 -1
-12 -1 -18 0 -21 5 -136 3 -141 -3 -3 -3 -17 -2 -30 3 -16 6 -24 6 -24 -1 0
-6 -7 -6 -17 -1 -20 9 -55 8 -72 -2 -6 -4 -11 -3 -11 3 0 6 -11 6 -30 1 -16
-5 -30 -6 -30 -2 0 4 -18 7 -40 7 -22 0 -40 -4 -40 -8 0 -5 -5 -5 -12 -1 -14
9 -78 12 -78 4 0 -3 -16 -5 -35 -5 -19 0 -35 2 -35 5 0 8 -156 4 -169 -4 -6
-4 -11 -3 -11 3 0 6 -11 6 -30 1 -16 -5 -30 -6 -30 -2 0 4 -18 7 -40 7 -22 0
-40 -4 -40 -8 0 -5 -5 -5 -12 -1 -14 9 -78 12 -78 4 0 -3 -16 -5 -35 -5 -19 0
-35 2 -35 5 0 8 -156 4 -169 -4 -6 -4 -11 -3 -11 3 0 6 -11 6 -30 1 -16 -5
-30 -6 -30 -2 0 4 -18 7 -40 7 -22 0 -40 -4 -40 -8 0 -5 -5 -5 -12 -1 -16 10
-78 12 -78 2 0 -4 -6 -5 -12 -3 -7 3 -51 6 -96 9 -59 2 -88 8 -100 19 -15 16
-25 82 -21 150 0 6 0 38 -1 69 -1 31 1 61 4 67 4 5 2 12 -3 16 -6 3 -7 16 -3
28 4 12 6 40 5 62 -4 52 -4 78 -3 145 1 30 -1 64 -3 75 -2 11 -1 34 4 52 4 18
3 35 -2 38 -4 3 -5 16 -1 28 4 12 6 36 5 52 -2 17 -3 48 -2 70 1 53 1 57 -4
80 -2 11 -1 34 4 52 4 18 3 35 -2 38 -4 3 -5 16 -1 28 4 12 6 38 5 57 -2 19
-5 46 -6 60 -1 14 1 40 4 58 4 17 3 34 -2 37 -4 3 -4 16 0 28 5 12 5 32 0 45
-5 14 -5 22 2 22 6 0 8 4 5 9 -4 5 -6 26 -6 48 0 45 0 116 0 141 0 9 0 48 -1
86 0 38 -2 73 -5 77 -2 4 0 11 6 14 7 5 8 11 1 19 -6 7 -6 18 -1 26 4 7 5 23
0 34 -4 12 -4 30 0 41 7 19 4 74 -4 82 -2 3 0 18 4 34 5 16 5 31 0 34 -4 3 -4
20 0 39 4 19 5 38 2 41 -3 3 -4 29 -3 58 3 61 2 79 -2 130 -1 20 0 37 4 37 8
0 4 45 -6 59 -3 6 -1 11 5 11 6 0 8 5 4 12 -4 6 -7 41 -6 77 4 114 2 164 -4
184 -3 11 -2 17 3 14 5 -3 8 10 6 31 -7 74 -8 192 -1 192 3 0 5 8 3 18 -12 58
-14 82 -7 78 5 -3 7 10 5 27 -2 18 -3 55 -3 82 0 28 1 59 1 70 0 11 -3 31 -6
43 -3 14 -2 21 4 18 5 -4 6 7 2 27 -4 17 -4 43 -1 57 4 14 3 36 -2 50 -6 16
-6 26 1 28 6 2 9 8 6 12 -3 5 -5 30 -5 57 1 62 1 62 0 168 0 50 1 97 2 105 1
8 -2 25 -6 38 -4 12 -3 22 2 22 5 0 6 19 2 43 -3 24 -3 52 1 63 3 10 4 23 1
28 -9 15 -9 57 0 62 5 3 5 10 2 16 -10 16 -11 189 -1 195 4 2 5 9 1 14 -3 5
-5 42 -5 82 1 79 0 122 -3 152 -1 11 1 32 5 47 4 15 4 30 0 32 -4 3 -5 22 -4
43 4 54 4 49 2 148 -1 50 0 95 1 100 1 6 1 12 0 15 -5 15 -5 79 1 107 4 18 4
34 1 37 -7 8 -5 213 3 225 3 6 3 11 -2 11 -8 0 -7 918 1 970 2 14 4 31 5 37 1
11 61 49 61 39 0 -3 14 -1 30 4 17 5 30 5 30 0 0 -5 13 -5 28 0 16 4 36 4 45
-2 10 -5 17 -5 17 0 0 5 12 7 28 5 33 -5 93 -4 103 2 4 3 18 1 30 -4 13 -4 36
-5 51 0 17 4 28 4 28 -2 0 -6 7 -6 18 -2 21 10 53 10 69 0 7 -5 22 -3 33 3 16
8 25 8 35 0 9 -8 15 -8 20 0 3 6 11 7 17 4 16 -10 59 -11 85 -2 12 4 25 3 28
-2 3 -5 18 -5 34 0 15 4 34 4 41 0 7 -4 26 -4 41 0 16 5 29 5 29 2 0 -9 67 -8
76 0 3 4 12 4 18 2 23 -9 97 -10 102 -2 3 5 10 6 15 2 15 -9 99 -11 105 -3 2
5 11 6 18 3 23 -9 97 -10 102 -2 3 5 10 6 15 2 16 -9 99 -11 99 -2 0 5 7 5 17
0 9 -6 29 -6 45 -2 15 5 28 6 28 2 0 -4 16 -7 35 -7 19 0 35 3 35 6 0 4 15 4
33 0 17 -4 47 -4 65 0 17 3 32 4 32 0 0 -3 25 -6 55 -6 30 0 55 2 55 5 0 3 23
4 51 3 100 -5 198 65 216 153 16 78 -4 164 -50 212 -42 45 -125 74 -212 74 -5
-1 -37 -1 -70 -1 -33 -1 -91 -1 -130 0 -38 0 -74 -1 -80 -1 -5 -1 -26 -2 -45
-1 -36 1 -134 0 -253 -1 -37 -1 -70 1 -73 4 -3 3 -17 3 -32 -1 -15 -4 -44 -4
-64 -1 -21 4 -38 5 -38 1 0 -8 -135 -5 -149 3 -6 4 -11 4 -11 -1 0 -4 -47 -8
-105 -8 -58 0 -105 4 -105 8 0 5 -5 5 -11 1 -14 -9 -501 -10 -516 -1 -5 3 -13
4 -16 1z"/>
<path d="M10889 9305 c-3 -3 -35 -8 -70 -11 -86 -8 -146 -38 -174 -89 -22 -40
-24 -49 -25 -116 -2 -47 34 -146 62 -177 32 -33 49 -41 103 -47 26 -2 50 -6
52 -9 3 -2 18 0 34 4 16 5 29 5 29 0 0 -7 47 -5 75 4 6 2 19 0 30 -4 11 -4 28
-3 38 2 10 5 17 5 17 -1 0 -8 45 -6 75 3 6 2 19 0 30 -4 11 -4 28 -3 38 2 10
5 17 5 17 -1 0 -8 45 -6 75 3 6 2 19 0 30 -4 11 -4 28 -3 38 2 10 5 17 5 17
-1 0 -5 10 -8 23 -5 12 2 36 4 52 4 125 -1 156 0 165 5 6 3 10 3 10 -2 0 -4
25 -8 55 -8 30 0 55 3 55 6 0 4 15 4 33 0 17 -4 47 -4 65 0 17 3 32 4 32 0 0
-7 205 -5 226 3 8 3 14 2 14 -2 0 -4 25 -7 55 -7 30 0 55 3 55 6 0 4 15 4 33
0 17 -4 47 -4 65 0 17 3 32 4 32 0 0 -7 205 -5 226 3 8 3 14 2 14 -2 0 -4 25
-7 55 -7 30 0 55 3 55 6 0 4 15 4 33 0 17 -4 46 -4 63 -1 16 4 39 3 50 0 10
-4 27 -3 37 2 10 5 17 5 17 -1 0 -5 9 -7 20 -4 13 3 20 0 21 -8 3 -75 -1
-6169 -5 -6184 -6 -28 -25 -72 -25 -61 -1 5 -8 3 -16 -4 -13 -11 -115 -23
-172 -21 -88 4 -144 3 -149 -2 -3 -3 -17 -2 -30 3 -15 6 -24 6 -24 0 0 -5 -7
-7 -17 -3 -15 6 -73 7 -90 3 -5 -1 -12 -1 -18 0 -21 5 -136 3 -141 -3 -3 -3
-17 -2 -30 3 -16 6 -24 6 -24 -1 0 -6 -7 -6 -17 -1 -20 9 -55 8 -72 -2 -6 -4
-11 -3 -11 3 0 6 -11 6 -30 1 -16 -5 -30 -6 -30 -2 0 4 -18 7 -40 7 -22 0 -40
-4 -40 -8 0 -5 -5 -5 -12 -1 -14 9 -78 12 -78 4 0 -3 -16 -5 -35 -5 -19 0 -35
2 -35 5 0 8 -156 4 -169 -4 -6 -4 -11 -3 -11 3 0 6 -11 6 -30 1 -16 -5 -30 -6
-30 -2 0 4 -18 7 -40 7 -22 0 -40 -4 -40 -8 0 -5 -5 -5 -12 -1 -14 9 -78 12
-78 4 0 -3 -16 -5 -35 -5 -19 0 -35 2 -35 5 0 8 -156 4 -169 -4 -6 -4 -11 -3
-11 3 0 6 -11 6 -30 1 -16 -5 -30 -6 -30 -2 0 4 -18 7 -40 7 -22 0 -40 -4 -40
-8 0 -5 -5 -5 -12 -1 -15 9 -78 12 -78 3 0 -3 -20 -3 -45 1 -25 4 -48 3 -51
-2 -3 -4 -10 -5 -16 -2 -13 9 -136 9 -144 1 -3 -3 -17 -2 -30 3 -15 6 -24 6
-24 0 0 -5 -7 -7 -17 -3 -21 8 -81 8 -89 0 -3 -3 -17 -2 -30 3 -16 6 -24 6
-24 -1 0 -6 -6 -7 -17 -1 -9 6 -29 6 -45 2 -17 -5 -28 -5 -28 1 0 6 -6 7 -12
2 -7 -4 -22 -9 -33 -10 -64 -11 -117 -101 -121 -207 -2 -39 0 -75 4 -80 4 -6
7 -13 7 -16 1 -19 43 -70 69 -86 17 -10 31 -16 31 -14 0 2 11 -3 25 -10 14 -8
43 -15 65 -17 32 -3 1472 -6 1755 -4 41 0 98 0 125 0 28 0 59 0 70 1 11 0 36
-1 55 -2 19 -2 45 0 57 4 12 4 25 3 28 -3 4 -5 11 -7 16 -3 10 6 97 6 142 0
15 -2 27 1 27 6 0 5 5 6 11 3 10 -7 36 -7 152 -2 26 1 47 -2 47 -8 0 -7 3 -7
8 0 4 6 23 11 42 11 56 2 115 10 125 16 6 3 26 8 46 12 21 4 42 13 49 21 7 8
18 15 25 15 30 0 134 120 174 202 l41 82 0 3248 c0 1936 -4 3255 -9 3266 -5 9
-17 38 -26 64 -33 94 -144 185 -245 202 -32 5 -206 14 -390 20 -41 1 -81 5
-88 10 -6 4 -12 4 -12 -1 0 -4 -33 -7 -72 -6 -78 3 -1216 5 -1233 3 -5 -1 -26
-2 -45 -1 -47 1 -144 0 -263 -2 -53 -1 -98 2 -100 6 -1 5 -5 6 -8 2z"/>
</g>
</svg>
