<?xml version="1.0" encoding="utf-8"?>
<svg version="1.1" id="Hamburger-Icon" xmlns="http://www.w3.org/2000/svg" xmlns:xlink="http://www.w3.org/1999/xlink" x="0px" y="0px"
	 viewBox="0 0 610.6 436.4" style="enable-background:new 0 0 610.6 436.4;" xml:space="preserve">
<style type="text/css">
	.st0{fill:#FFFFFF;}
</style>
<g id="Hamburger">
	<g>
		<line class="st0" x1="30" y1="30.2" x2="580.5" y2="30.2"/>
		<g>
			<path class="st0" d="M30,60.2c18.3,0,36.6,0,54.9,0c43.9,0,87.9,0,131.8,0c52.9,0,105.9,0,158.8,0c45.8,0,91.5,0,137.3,0
				c22.2,0,44.5,0.4,66.8,0c0.3,0,0.6,0,1,0c15.7,0,30.7-13.8,30-30c-0.7-16.3-13.2-30-30-30c-18.3,0-36.6,0-54.9,0
				c-43.9,0-87.9,0-131.8,0c-52.9,0-105.9,0-158.8,0c-45.8,0-91.5,0-137.3,0c-22.2,0-44.5-0.4-66.8,0c-0.3,0-0.6,0-1,0
				C14.3,0.2-0.7,14,0,30.2C0.8,46.4,13.2,60.2,30,60.2L30,60.2z"/>
		</g>
	</g>
	<g>
		<line class="st0" x1="30" y1="218.2" x2="580.5" y2="218.2"/>
		<g>
			<path class="st0" d="M30,248.2c18.3,0,36.6,0,54.9,0c43.9,0,87.9,0,131.8,0c52.9,0,105.9,0,158.8,0c45.8,0,91.5,0,137.3,0
				c22.2,0,44.5,0.4,66.8,0c0.3,0,0.6,0,1,0c15.7,0,30.7-13.8,30-30c-0.7-16.3-13.2-30-30-30c-18.3,0-36.6,0-54.9,0
				c-43.9,0-87.9,0-131.8,0c-52.9,0-105.9,0-158.8,0c-45.8,0-91.5,0-137.3,0c-22.2,0-44.5-0.4-66.8,0c-0.3,0-0.6,0-1,0
				c-15.7,0-30.7,13.8-30,30C0.8,234.4,13.2,248.2,30,248.2L30,248.2z"/>
		</g>
	</g>
	<g>
		<line class="st0" x1="30" y1="406.2" x2="580.5" y2="406.2"/>
		<g>
			<path class="st0" d="M30,436.2c18.3,0,36.6,0,54.9,0c43.9,0,87.9,0,131.8,0c52.9,0,105.9,0,158.8,0c45.8,0,91.5,0,137.3,0
				c22.2,0,44.5,0.4,66.8,0c0.3,0,0.6,0,1,0c15.7,0,30.7-13.8,30-30c-0.7-16.3-13.2-30-30-30c-18.3,0-36.6,0-54.9,0
				c-43.9,0-87.9,0-131.8,0c-52.9,0-105.9,0-158.8,0c-45.8,0-91.5,0-137.3,0c-22.2,0-44.5-0.4-66.8,0c-0.3,0-0.6,0-1,0
				c-15.7,0-30.7,13.8-30,30C0.8,422.4,13.2,436.2,30,436.2L30,436.2z"/>
		</g>
	</g>
</g>
</svg>
