<?xml version="1.0" encoding="utf-8"?>
<svg version="1.1" id="Hamburger-Menu" xmlns="http://www.w3.org/2000/svg" xmlns:xlink="http://www.w3.org/1999/xlink" x="0px" y="0px"
	 viewBox="0 0 2229 437.7" style="enable-background:new 0 0 2229 437.7;" xml:space="preserve">
<style type="text/css">
	.st0{fill:#FFFFFF;}
</style>
<g id="Hamburger">
	<g>
		<line class="st0" x1="30" y1="31.5" x2="580.5" y2="31.5"/>
		<g>
			<path class="st0" d="M30,61.5c18.3,0,36.6,0,54.9,0c43.9,0,87.9,0,131.8,0c52.9,0,105.9,0,158.8,0c45.8,0,91.5,0,137.3,0
				c22.2,0,44.5,0.4,66.8,0c0.3,0,0.6,0,1,0c15.7,0,30.7-13.8,30-30c-0.7-16.3-13.2-30-30-30c-18.3,0-36.6,0-54.9,0
				c-43.9,0-87.9,0-131.8,0c-52.9,0-105.9,0-158.8,0c-45.8,0-91.5,0-137.3,0c-22.2,0-44.5-0.4-66.8,0c-0.3,0-0.6,0-1,0
				c-15.7,0-30.7,13.8-30,30C0.8,47.8,13.2,61.5,30,61.5L30,61.5z"/>
		</g>
	</g>
	<g>
		<line class="st0" x1="30" y1="219.5" x2="580.5" y2="219.5"/>
		<g>
			<path class="st0" d="M30,249.5c18.3,0,36.6,0,54.9,0c43.9,0,87.9,0,131.8,0c52.9,0,105.9,0,158.8,0c45.8,0,91.5,0,137.3,0
				c22.2,0,44.5,0.4,66.8,0c0.3,0,0.6,0,1,0c15.7,0,30.7-13.8,30-30c-0.7-16.3-13.2-30-30-30c-18.3,0-36.6,0-54.9,0
				c-43.9,0-87.9,0-131.8,0c-52.9,0-105.9,0-158.8,0c-45.8,0-91.5,0-137.3,0c-22.2,0-44.5-0.4-66.8,0c-0.3,0-0.6,0-1,0
				c-15.7,0-30.7,13.8-30,30C0.8,235.8,13.2,249.5,30,249.5L30,249.5z"/>
		</g>
	</g>
	<g>
		<line class="st0" x1="30" y1="407.5" x2="580.5" y2="407.5"/>
		<g>
			<path class="st0" d="M30,437.5c18.3,0,36.6,0,54.9,0c43.9,0,87.9,0,131.8,0c52.9,0,105.9,0,158.8,0c45.8,0,91.5,0,137.3,0
				c22.2,0,44.5,0.4,66.8,0c0.3,0,0.6,0,1,0c15.7,0,30.7-13.8,30-30c-0.7-16.3-13.2-30-30-30c-18.3,0-36.6,0-54.9,0
				c-43.9,0-87.9,0-131.8,0c-52.9,0-105.9,0-158.8,0c-45.8,0-91.5,0-137.3,0c-22.2,0-44.5-0.4-66.8,0c-0.3,0-0.6,0-1,0
				c-15.7,0-30.7,13.8-30,30C0.8,423.8,13.2,437.5,30,437.5L30,437.5z"/>
		</g>
	</g>
	<g>
		<path class="st0" d="M876.2,0L1017,351.4L1157.8,0h73.6v430.6h-56.8V262.9l5.3-181l-141.4,348.7h-43.5L854,82.8l5.6,180.1v167.7
			h-56.8V0H876.2z"/>
		<path class="st0" d="M1455.9,436.5c-43.4,0-78.7-14.2-105.9-42.7c-27.2-28.5-40.8-66.6-40.8-114.3v-10.1c0-31.7,6.1-60.1,18.2-85
			c12.1-24.9,29.1-44.5,50.9-58.6c21.8-14.1,45.4-21.1,70.8-21.1c41.6,0,73.9,13.7,97,41.1c23.1,27.4,34.6,66.6,34.6,117.7v22.8
			h-216.8c0.8,31.5,10,57,27.7,76.5c17.6,19.4,40.1,29.1,67.3,29.1c19.3,0,35.7-3.9,49.1-11.8c13.4-7.9,25.1-18.3,35.2-31.4l33.4,26
			C1549.8,415.9,1509.5,436.5,1455.9,436.5z M1449.1,149.7c-22.1,0-40.6,8-55.6,24.1c-15,16.1-24.3,38.6-27.8,67.6H1526v-4.1
			c-1.6-27.8-9.1-49.3-22.5-64.6C1490.1,157.3,1472,149.7,1449.1,149.7z"/>
		<path class="st0" d="M1695.8,110.6l1.8,40.2c24.4-30.8,56.4-46.1,95.8-46.1c67.6,0,101.7,38.2,102.3,114.5v211.5H1841V218.9
			c-0.2-23.1-5.5-40.1-15.8-51.2c-10.4-11-26.5-16.6-48.4-16.6c-17.7,0-33.3,4.7-46.7,14.2c-13.4,9.5-23.9,21.9-31.4,37.3v228H1644
			v-320H1695.8z"/>
		<path class="st0" d="M2175.8,399c-21.3,25-52.5,37.6-93.8,37.6c-34.1,0-60.1-9.9-77.9-29.7c-17.8-19.8-26.9-49.1-27.1-88V110.6
			h54.7v206.7c0,48.5,19.7,72.8,59.2,72.8c41.8,0,69.6-15.6,83.4-46.7V110.6h54.7v320H2177L2175.8,399z"/>
	</g>
</g>
</svg>
