<svg xmlns="http://www.w3.org/2000/svg" viewBox="0 0 6000 520"><defs><style>.a{fill:#fff;}</style></defs><title>Logo</title><path class="a" d="M401.13,508.44a7.31,7.31,0,0,0-2.52-.95c-15.34.54-29.67-4-44.15-8.25a169.5,169.5,0,0,1-41.58-18.77c-10.9-6.73-20.92-15-31-22.91-11.32-8.93-20.18-20.18-28.67-31.75-13.75-18.72-24.43-38.91-30-61.57-2.14-8.68-4.58-17.32-6-26.12-2.58-15.86-2-31.82-1.34-47.88.66-17.33,6.94-33.15,10.49-49.69.74-3.44,2.57-6.7,4.26-9.86,4.81-9,10-17.84,14.7-26.91,8.56-16.46,20.94-29.87,34.48-42.1a217.23,217.23,0,0,1,28.94-21.82c10.22-6.51,21-12.58,32.19-17,14.62-5.8,29.66-11,45.56-12.29,10.84-.9,21.73-2,32.59-1.9,21,.25,41.56,3.25,61.65,10.33a246.76,246.76,0,0,1,38,17.36C536,146,550.93,158.7,564.25,173.27A196.2,196.2,0,0,1,586.9,203c5.84,9.5,11.4,19.14,15.24,29.34,5.42,14.37,10.14,29.3,12.57,44.4s2.35,31,2.21,46.51c-.13,14.24-3.89,28-7.69,41.77-5.65,20.49-15.08,39.1-26.83,56.54-12.4,18.39-27.87,34-45.5,47.51a197.4,197.4,0,0,1-48.43,26.78c-13.21,5.15-27.6,7.3-41.54,10.51-4.84,1.11-9.86,1.4-14.8,2.06Zm14.87-23c100-.56,175.11-78.53,177.73-170.48,3-105.79-79-180.19-170.51-183.09-106.79-3.38-182.52,78.92-184.74,172C236.05,405.92,317.63,485.14,416,485.44Z"/><path class="a" d="M743.09,469.44c-2.89,7.6-7.17,14.21-15.34,16.57-4.5,1.3-9.46,1.36-14.22,1.38-39,.1-78,0-117,.11-14.13.06-15.86-10.36-11.34-18.58,1.76-3.21,4.3-3.49,7.39-3.49q59.74.05,119.47,0c8.28,0,9-.73,9-9q0-149.46,0-298.93v-6h-5.65q-49.74,0-99.48,0c-4.11,0-7.4-.79-9.3-4.91-2.32-5-2.52-10.36.91-14.34,1.82-2.11,6.29-2.64,9.57-2.67q42-.29,84-.07c8.27,0,16.53.74,24.8.92a16.5,16.5,0,0,1,16.2,13,10,10,0,0,0,1,2Z"/><path class="a" d="M74.17,146.48c3.19-6.8,6.15-13.83,14.81-15.35,3.2-.56,6.41-1.56,9.62-1.58q46-.18,91.95-.05c6.15,0,10.08,2.51,11.67,7.08,2.65,7.65-2.33,14.88-10.34,14.89-30,0-60,.11-89.95-.1-4.72,0-5.86,1.43-5.85,6q.19,120.93.09,241.86,0,29.81,0,59.63c0,6,.56,6.59,6.57,6.59H211.19c7.41,0,11.88,4.25,12,11.32.08,6.31-4.8,10.66-12.11,10.67-36.65,0-73.29.16-109.94-.1-9-.06-18.23-1.16-23.17-10.68-1.38-2.67-2.52-5.47-3.77-8.21Q74.17,307.46,74.17,146.48Z"/><path class="a" d="M499.12,11.5c1.4.69,3,1.11,4.15,2.12,2.73,2.47,6.38,4.77,7.57,7.92,3.38,8.94,5.72,18.28,8.48,27.46,4.48,14.92,9.21,29.78,13.35,44.8,1.77,6.41,2.06,13.23,3.55,19.74a6.87,6.87,0,0,1-4.39,8.3,15.69,15.69,0,0,1-10.53.09c-6.6-2.58-8.36-9.2-10.07-15.37-2.17-7.83-4-15.74-6.11-23.59-3-11.32-5.75-22.69-9.08-33.91C493,38.72,490.42,34.37,479.6,34.47c-10.58.1-21.16,0-31.74,0H355.24c-9.64,0-13.19,2.21-16,11.21C335.3,58.27,331.91,71,328.11,83.6c-3.28,10.88-6.41,21.84-10.45,32.44-1.61,4.21-3.82,8.85-10,9.6-7.49.91-13.21-6.65-11.51-13,4-15.07,8.34-30,12.5-45.07,4.21-15.19,8.15-30.45,12.73-45.52.88-2.89,4-5.21,6.43-7.45,1.47-1.36,3.55-2.06,5.35-3.06Z"/><path class="a" d="M201.15,105c0,3.16.1,6.33,0,9.49a12.4,12.4,0,0,1-14.19,12c-3.82-.52-8.71-6.61-8.77-11.14-.08-6,0-12,0-18,0-3.27-1.51-4.79-4.81-4.89-8.26-.25-16.52-.85-24.78-.9a97.52,97.52,0,0,0-17.24,1.18c-1.65.29-3.77,3.43-4,5.45-.56,5.27-.18,10.63-.2,16,0,5.69-4.59,11.57-9.11,12.37-7.65,1.36-13.29-4.77-13.53-9.9-.55-11.4-2.12-23.09,3.92-33.87C113,74.69,120,70.51,128.84,69.62a220,220,0,0,1,26.26-1c8.52.16,17.17.45,25.5,2C193.93,73.21,199.16,83,201.09,96,201.52,99,201.15,102,201.15,105Z"/><path class="a" d="M374.51,194.77c-1.8,4.11-4,8.09-5.31,12.35-4.17,13.66-9,27.23-11.69,41.2a88.31,88.31,0,0,0,4.66,50.35,36.1,36.1,0,0,0,2.07,4.85c3.44-55.94,28.94-97.85,78.07-125-8.4,6.5-17.39,12.38-25.05,19.66a166.72,166.72,0,0,0-21.72,24.93,154.27,154.27,0,0,0-15.71,28.52c-4.17,9.9-6.48,20.59-8.89,31.21C387,259.78,405,238.79,430,225.74c25.46-13.26,53.08-14.52,81.07-11-47.81-2.16-89.19,10.84-119.58,50.27,52.59-27.4,102.38-21.59,149.88,12.09-38-23.21-78.18-33.18-122.46-18.31,56.76,3,96.54,31.25,122.05,80.88-6.17-8.16-11.93-16.68-18.63-24.38a174.21,174.21,0,0,0-21.56-21.4,147.62,147.62,0,0,0-25.9-16.83c-9-4.54-18.91-7.28-28.84-10,21.47,18.49,42.7,37,51.93,64.54,9,26.69,11.52,54.17,4.15,81,0-11.1.34-23-.08-34.94-.61-17.41-3.16-34.4-10.83-50.44C485.66,315.7,479.05,305,470,295.82c-1.33-1.35-2.42-2.95-4.46-5.47-.11,2.35-.51,3.61-.16,4.62,7.13,20.5,11.28,41.53,9.61,63.27a138,138,0,0,1-10.78,44.93A151.83,151.83,0,0,1,443.89,437a14.86,14.86,0,0,1-3.41,3.14c23.77-37.76,39.29-77.26,26.83-123-5,37.18-20.4,69-48.58,94-13.05,11.55-27.23,21.69-45.1,25,40.83-19.18,71.36-47.6,83.76-93.73-18.05,21.75-37.07,40.32-62.83,51.26-26.11,11.08-52.48,11.9-79.6,6.71,47.16,3.79,89.4-6.46,122.92-42.94q-80,35.59-149.28-17.47c38.26,21.54,77.86,35.8,122.64,21.78-27-2.21-52.75-8.86-75.21-24.15-22.19-15.11-40.5-34-49.65-60.19,14.4,25.49,33.44,46.69,58.84,61.47,12.34,7.18,25.66,12.59,41.48,13.53-23.38-16-42.95-34.82-54.12-59.86s-14.65-51.77-9-79.1c-.42,29.13,1.07,58,16.18,84,10.25,17.62,20.92,28.83,29,33.52C345,277.91,347.08,239.52,374.51,194.77Zm89.58,117.55a69.1,69.1,0,0,1-1.93-6.78c-1.85-9.79-3.07-19.84-12.45-26a4.75,4.75,0,0,1-1.34-1.47c-2.58-4.17-5.84-7.45-10.78-8.73s-9.67-2.76-14.57-3.87a28.6,28.6,0,0,0-8.3-.88,86,86,0,0,0-11.06,1.93c-3.14.65-6.68.78-9.26,2.39-4.27,2.67-8,6.3-11.81,9.63-4.32,3.73-8.46,7.55-9.46,13.7-.47,2.85-1.77,5.55-2.57,8.36-.88,3.12-2.63,6.43-2.21,9.4,1,6.72,2,13.78,4.85,19.8,4.44,9.31,10.65,17.76,21,21.68,6.67,2.54,13.83,7.19,20.19,6.37,9.47-1.22,20.41-1.51,27.89-8.66,6.22-5.94,15.09-9.88,16.73-20.08C459.87,323.57,462.23,318.26,464.09,312.32Z"/><path class="a" d="M1181,314H1071.78V502.11h-61.65V37.05h154q78.58,0,120.9,35.77T1327.3,177q0,43.44-23.48,75.7t-65.32,48.23l109.24,197.39v3.83h-65.8Zm-109.24-50.15H1166q45.67,0,72.67-23.68t27-63.36q0-43.19-25.71-66.23T1165.68,87.2h-93.91Z"/><path class="a" d="M1547.38,508.5q-70.27,0-114.35-46.15t-44.08-123.45V328q0-51.42,19.64-91.83T1463.53,173q35.29-22.83,76.5-22.84,67.39,0,104.77,44.4t37.37,127.12v24.59H1448q1.27,51.11,29.86,82.57t72.67,31.46q31.3,0,53-12.78a133.2,133.2,0,0,0,38-33.86l36.09,28.11Q1634.25,508.51,1547.38,508.5ZM1540,198.67q-35.78,0-60,26t-30,73h173.12v-4.47q-2.56-45-24.28-69.79T1540,198.67Z"/><path class="a" d="M1830.69,72.83v83.69h64.52v45.68h-64.52V416.78q0,20.79,8.62,31.18t29.39,10.39q10.22,0,28.11-3.83v47.63a172.36,172.36,0,0,1-45.36,6.35q-39.61,0-59.73-24t-20.12-68V202.19h-62.92V156.51h62.92V72.83Z"/><path class="a" d="M1942.16,326.12q0-50.79,20-91.35t55.58-62.6q35.61-22,81.29-22,70.59,0,114.19,48.87t43.6,130v4.15q0,50.47-19.32,90.55t-55.26,62.44q-35.93,22.36-82.57,22.36-70.27,0-113.87-48.87t-43.6-129.36Zm59.41,7q0,57.49,26.67,92.31t71.39,34.82q45,0,71.55-35.29t26.51-98.86q0-56.85-27-92.15T2099,198.67q-43.76,0-70.59,34.82T2001.58,333.14Z"/><path class="a" d="M2544.25,467.94Q2509.75,508.5,2443,508.5q-55.26,0-84.16-32.1t-29.23-95V156.51h59.09V379.78q0,78.57,63.88,78.57,67.71,0,90.07-50.47V156.51h59.09v345.6h-56.22Z"/><path class="a" d="M2830.12,460.27q31.62,0,55.26-19.16t26.19-47.91h55.9q-1.6,29.71-20.44,56.54t-50.31,42.8a145.19,145.19,0,0,1-66.6,16q-70.59,0-112.27-47.11t-41.68-128.88v-9.9q0-50.46,18.53-89.75t53.18-61q34.65-21.72,81.93-21.72,58.13,0,96.62,34.82t41,90.39h-55.9q-2.56-33.54-25.39-55.1t-56.37-21.56q-45,0-69.79,32.42t-24.75,93.75V336q0,59.73,24.59,92T2830.12,460.27Z"/><path class="a" d="M3093,198.35q39.29-48.23,102.21-48.23,109.55,0,110.52,123.61V502.11h-59.09V273.42q-.32-37.37-17.09-55.26t-52.22-17.89q-28.75,0-50.47,15.33A104.06,104.06,0,0,0,3093,255.85V502.11H3033.9V11.5H3093Z"/><path class="a" d="M3631.2,502.11h-61.33V37.05h61.33Z"/><path class="a" d="M4064.64,87.2H3915.15V502.11h-61V87.2H3705V37.05h359.65Z"/><path class="a" d="M4344.12,320V502.11h-61.33V37.05h171.52q76.34,0,119.62,39t43.28,103.17q0,67.72-42.32,104.29T4453.68,320Zm0-50.15h110.2q49.18,0,75.38-23.2t26.19-67q0-41.59-26.19-66.55T4457.83,87.2H4344.12Z"/><path class="a" d="M4745.3,198.35q39.29-48.23,102.21-48.23,109.55,0,110.52,123.61V502.11h-59.09V273.42q-.32-37.37-17.09-55.26t-52.22-17.89q-28.75,0-50.47,15.33a104.06,104.06,0,0,0-33.86,40.25V502.11H4686.2V11.5h59.09Z"/><path class="a" d="M5030.85,326.12q0-50.79,20-91.35t55.58-62.6q35.61-22,81.29-22,70.59,0,114.19,48.87t43.6,130v4.15q0,50.47-19.32,90.55t-55.26,62.44q-35.93,22.36-82.57,22.36-70.27,0-113.87-48.87t-43.6-129.36Zm59.41,7q0,57.49,26.67,92.31t71.39,34.82q45,0,71.55-35.29t26.51-98.86q0-56.85-27-92.15t-71.71-35.29q-43.76,0-70.59,34.82T5090.26,333.14Z"/><path class="a" d="M5499.74,72.83v83.69h64.52v45.68h-64.52V416.78q0,20.79,8.62,31.18t29.39,10.39q10.22,0,28.11-3.83v47.63a172.36,172.36,0,0,1-45.36,6.35q-39.61,0-59.73-24t-20.12-68V202.19h-62.92V156.51h62.92V72.83Z"/><path class="a" d="M5611.21,326.12q0-50.79,20-91.35t55.58-62.6q35.61-22,81.29-22,70.59,0,114.19,48.87t43.6,130v4.15q0,50.47-19.32,90.55t-55.26,62.44q-35.93,22.36-82.57,22.36-70.27,0-113.87-48.87t-43.6-129.36Zm59.41,7q0,57.49,26.67,92.31t71.39,34.82q45,0,71.55-35.29t26.51-98.86q0-56.85-27-92.15T5768,198.67q-43.76,0-70.59,34.82T5670.62,333.14Z"/></svg>